<svg id="eed9bbac-8433-4041-b27b-b9dabe773e72" data-name="Layer 1" xmlns="http://www.w3.org/2000/svg" width="1097" height="727.07205" viewBox="0 0 1097 727.07205"><title>share_opinion</title><path d="M998.21546,790.38894l-229.21475.7592c-60.81041-18.2721-110.6323-81.736-110.94745-176.88721a269.465,269.465,0,0,1,3.23812-42.81223L845.91321,529.971l142.42432-31.995a283.262,283.262,0,0,1,29.2563,30.4193L881.40319,600.30761,817.156,634.2338l72.19443-24.90689,149.84346-51.69428a363.37031,363.37031,0,0,1,24.91622,44.67247l-45.211,46.72484,51.14435-33.48237q.32789.76935.653,1.54117C1103.10983,694.03874,1062.89315,790.17471,998.21546,790.38894Z" transform="translate(-51.5 -86.46397)" fill="#f2f2f2"/><path d="M960.54658,476.43981c-34.66294,9.9552-77.27874,22.53336-121.09467,35.60691-63.35144,18.90781-129.20891,38.86137-177.15523,53.44709l.03129-.171a65.89939,65.89939,0,0,1,12.15994-28.22451c35.51716-46.17886,80.74259-78.4385,131.07659-90.4187h.00442a188.90614,188.90614,0,0,1,43.20151-5.1543C888.81633,441.39268,926.7482,453.95281,960.54658,476.43981Z" transform="translate(-51.5 -86.46397)" fill="#f2f2f2"/><path d="M304.4,646.526l-39.63,118.69-9.73,29.16a98.102,98.102,0,0,1-16.61,19.16h-.93c-49.93,0-95.27-2.57-128.68-6.74l4.65-35.65,9.98-76.46,12.76-97.92a181.56836,181.56836,0,0,1,23.63-13.01l11.25,101.56,5.31,47.91,1.54-51.3,3.19-106.48a213.0561,213.0561,0,0,1,30.78-7.48l16.71,38.1-7.9-39.38c.34-.04.68005-.09,1.02-.12995C272.47,560.446,318.32,604.806,304.4,646.526Z" transform="translate(-51.5 -86.46397)" fill="#f2f2f2"/><path d="M117.95,610.546c-1.88,24.25-3.99,54.12-6.09,84.87-1.76,25.85-3.5,52.31-5.07,76.55-.78,12.09-1.52,23.63-2.19,34.27-5.68-.75-10.99-1.56-15.88-2.4a182.33641,182.33641,0,0,1-12.33-26.74c-8.6-23.47-11.89-48.08-9-72.39v-.01a144.30256,144.30256,0,0,1,6.46-28.82A148.43687,148.43687,0,0,1,117.95,610.546Z" transform="translate(-51.5 -86.46397)" fill="#f2f2f2"/><path d="M423.5,789.24605c0,13.37994-82.78,24.22-185.07,24.29h-.93c-49.93,0-95.27-2.57-128.68-6.74-1.43-.19-2.84-.37-4.22-.56-5.68-.75-10.99-1.56-15.88-2.4-23.37-4.07-37.22-9.12-37.22-14.59,0-4.43006,9.06-8.57,24.89-12.15,8.36-1.89,18.6-3.61,30.4-5.13q3.25506-.435,6.68-.82c32.91-3.85,76.38-6.19,124.03-6.19,9.26,0,18.37.09,27.27.26C354.56,766.936,423.5,777.036,423.5,789.24605Z" transform="translate(-51.5 -86.46397)" fill="#3f3d56"/><path d="M201.42857,576.60365l4.67347,36.45306s1.86939,12.151,3.73878,18.69387c0,0-1.86939,34.58368,13.08571,58.88572l9.34694,17.75918,1.86939,26.17143L257.5102,737.371l-4.67347-39.25714s-1.86938-18.69388,0-26.17143-9.34693-42.06122-9.34693-42.06122,14.9551-48.60409,3.73877-60.75511S201.42857,576.60365,201.42857,576.60365Z" transform="translate(-51.5 -86.46397)" fill="#a0616a"/><path d="M242.5551,727.08936s-10.28163,0-11.21632,2.80408-15.8898,28.04082-15.8898,28.04082-13.08571,20.56326,5.60816,21.498,24.302-7.47755,24.302-7.47755,16.82449-27.10613,17.75919-31.7796-7.023-14.689-7.023-14.689S245.35918,732.69752,242.5551,727.08936Z" transform="translate(-51.5 -86.46397)" fill="#2f2e41"/><circle cx="204.14082" cy="150.84579" r="31.77959" fill="#a0616a"/><path d="M229.93673,247.12405s0,34.58368-12.151,37.38776S234.6102,319.09548,250.5,315.35671s22.43265-28.97551,22.43265-28.97551-14.02041-17.75919-8.41224-27.10613S229.93673,247.12405,229.93673,247.12405Z" transform="translate(-51.5 -86.46397)" fill="#a0616a"/><path d="M243.4898,295.26079a27.98317,27.98317,0,0,1-22.42372-12.47234s-13.09465,2.19071-14.964,3.1254-34.58367,11.21633-42.06122,32.71429l29.9102,38.32244s-6.54286,54.21225,0,78.51429a68.87322,68.87322,0,0,1-2.80408,43.93061s-2.80408.9347,1.86939,2.80408S305.17959,462.571,307.049,456.96283s-1.86939-5.60816.93469-8.41225,10.28164-19.62857,2.80409-25.23673-12.151-67.298-12.151-67.298l19.62858-49.53878s-35.87388-28.67019-48.78184-25.08407C269.48347,281.393,266.85714,295.26079,243.4898,295.26079Z" transform="translate(-51.5 -86.46397)" fill="#d0cde1"/><path d="M255.64082,557.90977s-1.86939,41.12653,1.86938,57.01632,3.73878,22.43266,3.73878,22.43266-5.60816,27.10612-2.80408,52.34285-3.27143,65.91523-3.27143,65.91523l22.9,6.9909L292.09388,691.571s11.21632-43.93061,4.67347-64.49388c0,0,3.73877-62.62448,6.54285-69.16734S255.64082,557.90977,255.64082,557.90977Z" transform="translate(-51.5 -86.46397)" fill="#a0616a"/><path d="M230.55973,242.96972c.42136-2.98086,1.31241-6.23256,3.8542-7.84575,2.63879-1.67475,6.04512-.9878,9.16218-.75985s6.93655-.55165,7.96108-3.50433c.63882-1.84106-.05146-4.04122.94519-5.71581,1.58608-2.665,6.42844-2.36082,7.26362-5.34748.26453-.946.00742-2.00178.38924-2.90679.51507-1.22084,1.96137-1.70745,3.25225-2.00642a52.02178,52.02178,0,0,1,14.4072-1.26967,1.91375,1.91375,0,0,0,1.36724-.27056,1.67165,1.67165,0,0,0,.44117-.76829c1.09455-3.27274-.06469-6.98608-2.24254-9.663a23.62109,23.62109,0,0,0-8.35365-5.969,61.17362,61.17362,0,0,0-22.5415-5.99036c-5.962-.37452-12.22038.27453-17.29866,3.42044a24.48262,24.48262,0,0,0-4.16534,3.32061,36.56616,36.56616,0,0,0-10.27632,20.44428A46.05509,46.05509,0,0,0,217.23551,241.03c1.61347,4.39147,4.15847,8.92708,8.09615,11.63319,2.11055,1.45045,3.93021,2.78944,4.80667.32662C231.06776,250.37815,230.15063,245.86394,230.55973,242.96972Z" transform="translate(-51.5 -86.46397)" fill="#2f2e41"/><path d="M195.82041,473.78732S181.8,492.4812,184.60408,505.56691s13.08572,34.58367,13.08572,34.58367-5.60817,42.06123,3.73877,42.06123,49.53878-1.86939,50.47347-6.54286-2.80408-51.40816-2.80408-51.40816,4.67347,41.12653,7.47755,41.12653,51.40816,4.67347,53.27755,1.86939,5.60816-74.77551,5.60816-74.77551,5.098-33.94323-11.00406-38.46958S195.82041,473.78732,195.82041,473.78732Z" transform="translate(-51.5 -86.46397)" fill="#2f2e41"/><path d="M270.59592,755.13018s-16.82449-9.34694-17.75919-1.86939-11.21632,34.58367-11.21632,34.58367-10.28163,21.498,12.151,22.43265,28.04081-9.34693,28.04081-14.0204-2.51408-36.73642-2.51408-36.73642Z" transform="translate(-51.5 -86.46397)" fill="#2f2e41"/><path d="M328.54694,356.95058l4.67347,41.12653s5.60816,22.43266,1.86939,31.7796-17.75919,52.34285-17.75919,52.34285-3.73877-23.36734-13.08571-26.17142l5.60816-53.27756s-13.38209-33.24649-10.42982-37.65385S328.54694,356.95058,328.54694,356.95058Z" transform="translate(-51.5 -86.46397)" fill="#a0616a"/><path d="M162.17143,359.75467l1.86939,37.38775s-6.54286,32.71429,6.54285,67.298l1.86939,14.9551,12.151,23.36735s2.80408-22.43265,8.41225-22.43265c0,0-5.60817-14.95511-3.73878-23.36735s-.93469-53.27755-.93469-53.27755l4.67347-36.29483Z" transform="translate(-51.5 -86.46397)" fill="#a0616a"/><path d="M307.98367,305.54242h10.28164s24.302,56.08163,14.9551,57.01633-39.25714,8.41224-40.19184,4.67347S307.98367,305.54242,307.98367,305.54242Z" transform="translate(-51.5 -86.46397)" fill="#d0cde1"/><path d="M172.45306,310.21589l-8.41224,8.41225s-11.21633,42.06122-2.80409,46.73469,40.19184,10.28163,42.06123,6.54286S172.45306,310.21589,172.45306,310.21589Z" transform="translate(-51.5 -86.46397)" fill="#d0cde1"/><path d="M842.5806,115.594v648.2a29.13909,29.13909,0,0,1-29.13,29.11005h-263.15a29.07908,29.07908,0,0,1-29.13-29.11v-648.2a29.12748,29.12748,0,0,1,29.13-29.13h39.38v5.05a23.987,23.987,0,0,0,23.98,23.99h133.84a23.78923,23.78923,0,0,0,14.22-4.68,22.28455,22.28455,0,0,0,2.36-1.98,23.917,23.917,0,0,0,7.4-17.33v-5.05h41.97A29.12108,29.12108,0,0,1,842.5806,115.594Z" transform="translate(-51.5 -86.46397)" fill="#3f3d56"/><ellipse cx="667" cy="260.64206" rx="75" ry="15" opacity="0.1"/><ellipse cx="558" cy="337.64206" rx="75" ry="15" opacity="0.1"/><ellipse cx="620" cy="478.64206" rx="75" ry="15" opacity="0.1"/><ellipse cx="599" cy="631.64206" rx="75" ry="15" opacity="0.1"/><polygon points="859.5 403.496 631.5 403.496 631.5 425.774 631.5 459.7 631.5 478.789 650.588 459.7 859.5 459.7 859.5 403.496" fill="#171c3c"/><polygon points="316 259.996 544 259.996 544 282.274 544 316.2 544 335.289 524.912 316.2 316 316.2 316 259.996" fill="#171c3c"/><rect x="682.36667" y="417.14206" width="128.26667" height="10.4" fill="#fff"/><rect x="682.36667" y="432.74206" width="128.26667" height="10.4" fill="#fff"/><rect x="354.86667" y="274.64206" width="128.26667" height="10.4" fill="#fff"/><rect x="354.86667" y="290.24206" width="128.26667" height="10.4" fill="#fff"/><polygon points="1097 118.642 667 118.642 667 160.658 667 224.642 667 260.642 703 224.642 1097 224.642 1097 118.642" fill="#171c3c"/><rect x="734" y="142.64206" width="296" height="24" fill="#fff"/><rect x="734" y="178.64206" width="296" height="24" fill="#fff"/><path d="M623.34011,688.1148c10.94518,20.29833,34.17479,29.012,34.17479,29.012s5.484-24.19645-5.46122-44.49478-34.1748-29.012-34.1748-29.012S612.39492,667.81648,623.34011,688.1148Z" transform="translate(-51.5 -86.46397)" fill="#fff"/><path d="M630.86315,681.4368c19.76057,11.88861,27.371,35.50266,27.371,35.50266s-24.42779,4.33881-44.18836-7.5498-27.371-35.50266-27.371-35.50266S611.10258,669.54819,630.86315,681.4368Z" transform="translate(-51.5 -86.46397)" fill="#171c3c"/></svg>